<?xml version="1.0" encoding="utf-8"?>
<!-- Generator: Adobe Illustrator 19.0.0, SVG Export Plug-In . SVG Version: 6.00 Build 0)  -->
<svg version="1.1" id="Layer_1" xmlns="http://www.w3.org/2000/svg" xmlns:xlink="http://www.w3.org/1999/xlink" x="0px" y="0px"
	 viewBox="0 0 426 426" style="enable-background:new 0 0 426 426;" xml:space="preserve">
<style type="text/css">
	.st0{fill:#FFFFFF;}
	.st1{fill:#200C38;}
</style>
<circle class="st0" cx="213" cy="213" r="213"/>
<g>
	<path class="st1" d="M261.4,140.9c20.6,2.5,39.1,11.9,53.1,25.8c16.4,16.4,26.5,39,26.5,63.9s-10.1,47.6-26.5,63.9
		c-16.4,16.4-39,26.5-63.9,26.5s-47.6-10.1-63.9-26.5c-16.4-16.4-26.5-39-26.5-63.9s10.1-47.6,26.5-63.9c15-15,35.2-24.7,57.7-26.3
		v-11.5c0-0.2,0-0.5,0-0.7h-16.9c-2.8,0-5-2.3-5-5v-12.3c0-2.8,2.3-5,5-5h50.9c2.8,0,5,2.3,5,5v12.4c0,2.8-2.3,5-5,5h-16.9
		c0,0.2,0,0.4,0,0.7V140.9L261.4,140.9L261.4,140.9z M257.9,217.1c4.8,2.6,8.1,7.7,8.1,13.5c0,8.5-6.9,15.3-15.3,15.3
		s-15.3-6.9-15.3-15.3c0-5.8,3.3-10.9,8.1-13.5V182c0-4,3.2-7.3,7.2-7.3c4,0,7.3,3.2,7.3,7.3L257.9,217.1L257.9,217.1L257.9,217.1z
		 M331.8,168.2c3.5-8.4,3.1-17.1-1.9-23c-6-7-16.9-7.9-27-2.9C313.6,149.6,323.3,158.2,331.8,168.2L331.8,168.2L331.8,168.2z
		 M169.4,168.2c-3.5-8.4-3.1-17.1,1.9-23c6-7,16.9-7.9,27-2.9C187.6,149.6,177.9,158.2,169.4,168.2L169.4,168.2L169.4,168.2z
		 M304.3,177c-13.7-13.7-32.7-22.2-53.7-22.2s-39.9,8.5-53.7,22.2c-13.7,13.7-22.2,32.7-22.2,53.7c0,21,8.5,39.9,22.2,53.7
		c13.7,13.7,32.7,22.2,53.7,22.2s39.9-8.5,53.7-22.2c13.7-13.7,22.2-32.7,22.2-53.7C326.5,209.7,318,190.7,304.3,177L304.3,177
		L304.3,177z"/>
	<path class="st1" d="M75.1,196.9c-4,0-7.2-3.2-7.2-7.3c0-4,3.2-7.3,7.2-7.3h71.6l-3.6,14.5L75.1,196.9L75.1,196.9L75.1,196.9z"/>
	<path class="st1" d="M90.2,238.5c-4,0-7.3-3.2-7.3-7.2s3.2-7.3,7.3-7.3h46.3l1.2,14.5H90.2L90.2,238.5L90.2,238.5z"/>
	<path class="st1" d="M106.4,281.2c-4,0-7.3-3.2-7.3-7.3c0-4,3.2-7.3,7.3-7.3h36.2l4.8,14.5L106.4,281.2L106.4,281.2L106.4,281.2z"
		/>
</g>
</svg>
