<?xml version="1.0" encoding="utf-8"?>
<!-- Generator: Adobe Illustrator 19.0.0, SVG Export Plug-In . SVG Version: 6.00 Build 0)  -->
<svg version="1.1" id="Layer_1" xmlns="http://www.w3.org/2000/svg" xmlns:xlink="http://www.w3.org/1999/xlink" x="0px" y="0px"
	 viewBox="0 0 426 426" style="enable-background:new 0 0 426 426;" xml:space="preserve">
<style type="text/css">
	.st0{fill:#FFFFFF;}
	.st1{fill:#200C38;}
</style>
<circle class="st0" cx="213" cy="213" r="213"/>
<g>
	<path class="st1" d="M216.5,225.3c-0.5-0.1-1-0.1-1.5-0.1c-5-0.6-8.8-4.8-8.8-9.9c0-2.4-2-4.4-4.4-4.4c-2.4,0-4.4,2-4.4,4.4
		c0,8.5,5.7,15.9,13.8,18.1v4.4c0,2.4,2,4.4,4.4,4.4s4.4-2,4.4-4.4v-4.1c9.4-2,15.8-10.7,14.8-20.3c-1-9.6-9.1-16.8-18.7-16.8
		c-5.5,0-10-4.5-10-10c0-5.5,4.5-10,10-10s10,4.5,10,10c0,2.4,2,4.4,4.4,4.4c2.4,0,4.4-2,4.4-4.4c0-8.9-6.2-16.5-14.9-18.4v-4
		c0-2.4-2-4.4-4.4-4.4s-4.4,2-4.4,4.4v4.3c-9.1,2.5-14.9,11.3-13.7,20.6c1.3,9.3,9.2,16.3,18.6,16.3c5.4,0,9.9,4.4,10,9.8
		C226.2,220.5,222,225.1,216.5,225.3L216.5,225.3z"/>
	<path class="st1" d="M152.4,201.3c0,35.2,28.5,63.7,63.7,63.7s63.7-28.5,63.7-63.7c0-35.2-28.5-63.7-63.7-63.7
		C181,137.6,152.4,166.1,152.4,201.3z M216.2,146.3c30.4,0,55,24.6,55,55c0,30.4-24.6,55-55,55c-30.4,0-55-24.6-55-55
		C161.2,170.9,185.8,146.3,216.2,146.3z"/>
	<path class="st1" d="M301.6,275.8l-34.4,16.3c-4.8-8.8-13.9-14.5-23.9-14.8l-31.8-0.9c-5-0.1-10-1.4-14.4-3.7l-3.2-1.7
		c-16.6-8.6-36.3-8.6-52.8,0.1l0.2-7.3c0.1-2.4-1.8-4.4-4.3-4.5l-34.9-1c-2.4-0.1-4.4,1.8-4.5,4.3l-2.1,76.5
		c-0.1,2.4,1.8,4.4,4.3,4.5l34.9,1h0.1c2.4,0,4.3-1.9,4.4-4.3l0.1-3.7l9.1-4.8c3.6-1.9,7.7-2.4,11.6-1.3l54.1,15.2
		c0.1,0,0.2,0,0.3,0.1c3.9,0.8,7.9,1.2,11.9,1.2c8.5,0,16.8-1.8,24.5-5.3c0.2-0.1,0.4-0.2,0.5-0.3l78.4-50.7c2-1.3,2.6-3.8,1.4-5.9
		C325.1,274.5,312.2,270.5,301.6,275.8L301.6,275.8z M104.3,335l1.9-67.7l26.1,0.7l-1.9,67.7L104.3,335z M246.5,333.8
		c-9.5,4.3-20.2,5.5-30.5,3.4l-53.9-15.1c-6.1-1.7-12.6-1-18.1,2l-4.6,2.5l1.2-45c14.7-9.8,33.5-10.8,49.1-2.6l3.2,1.7
		c5.7,2.9,11.9,4.5,18.2,4.7l31.8,0.9c8.9,0.3,16.5,6.6,18.3,15.4l-47.4-1.3c-2.4-0.1-4.4,1.8-4.5,4.3c-0.1,2.4,1.8,4.4,4.3,4.5
		l52.3,1.4h0.1c2.4,0,4.3-1.9,4.4-4.3c0.1-1.9-0.1-3.8-0.4-5.7l35.3-16.7c0,0,0.1,0,0.1,0c5-2.5,11.1-1.7,15.2,2.1L246.5,333.8z"/>
	<path class="st1" d="M220.5,125.2V83.4c0-2.4-2-4.4-4.4-4.4c-2.4,0-4.4,2-4.4,4.4v41.8c0,2.4,2,4.4,4.4,4.4
		C218.6,129.6,220.5,127.6,220.5,125.2z"/>
	<path class="st1" d="M253.5,125.2v-19.8c0-2.4-2-4.4-4.4-4.4c-2.4,0-4.4,2-4.4,4.4v19.8c0,2.4,2,4.4,4.4,4.4
		C251.5,129.6,253.5,127.6,253.5,125.2z"/>
	<path class="st1" d="M187.6,125.2v-19.8c0-2.4-2-4.4-4.4-4.4s-4.4,2-4.4,4.4v19.8c0,2.4,2,4.4,4.4,4.4S187.6,127.6,187.6,125.2z"/>
</g>
</svg>
