<?xml version="1.0" encoding="utf-8"?>
<!-- Generator: Adobe Illustrator 19.0.0, SVG Export Plug-In . SVG Version: 6.00 Build 0)  -->
<svg version="1.1" id="Layer_1" xmlns="http://www.w3.org/2000/svg" xmlns:xlink="http://www.w3.org/1999/xlink" x="0px" y="0px"
	 viewBox="0 0 426 426" style="enable-background:new 0 0 426 426;" xml:space="preserve">
<style type="text/css">
	.st0{fill:#FFFFFF;}
	.st1{fill:#200C38;}
</style>
<circle class="st0" cx="213" cy="213" r="213"/>
<path class="st1" d="M313.9,128.2L217.3,88c-2.4-1-5.1-1-7.6,0l-96.6,40.1c-3.7,1.5-6.1,5.1-6.1,9.1V186
	c0,67.2,40.6,127.6,102.8,153c2.4,1,5.1,1,7.5,0C279.4,313.6,320,253.2,320,186v-48.8C320,133.3,317.6,129.7,313.9,128.2
	L313.9,128.2z M300.3,186c0,57.1-33.5,109.7-86.8,133.1c-51.8-22.8-86.8-74.5-86.8-133.1v-42.2l86.8-36l86.8,36V186z M202.6,219.3
	l42.4-42.4c3.9-3.9,10.1-3.9,13.9,0c3.9,3.9,3.9,10.1,0,13.9l-49.4,49.4c-3.9,3.9-10.1,3.8-13.9,0l-27.6-27.6
	c-3.9-3.9-3.9-10.1,0-13.9c3.9-3.9,10.1-3.9,13.9,0L202.6,219.3z"/>
</svg>
